# xmcd
#
# Track frame offsets: 
#        150
#        16130
#        33127
#
# Disc length: 658 seconds
#
# Revision: 2
# Processed by: cddbd v1.5.2PL0 Copyright (c) Steve Scherf et al.
# Submitted via: ExactAudioCopy v1.1
#
DISCID=13029003
DTITLE=Bill Wyman's Rhythm Kings - Groovin'
DYEAR=2000
DGENRE=Rock
TTITLE0=Bill Wyman's Rhythm Kings Featuring Beverley Skeete - Groovin'
TTITLE1=Can't Get My Rest At Night
TTITLE2=Gambler's Lament
EXTD=
EXTT0=
EXTT1=
EXTT2=
PLAYORDER=
